<svg class="icon" style="width: 1em; height: 1em;vertical-align: middle;fill: currentColor;overflow: hidden;" viewBox="0 0 1024 1024" version="1.1" xmlns="http://www.w3.org/2000/svg"><path d="M844.007074 761.728537 595.162506 761.728537c-6.542519 0-11.844905 7.452235-11.844905 16.646662l0 12.47999c0 9.192997 5.302387 16.646662 11.844905 16.646662l248.845998 0c6.542519 0 11.844905-7.453665 11.844905-16.646662l0-12.47999C855.853409 769.180772 850.551023 761.728537 844.007074 761.728537zM253.127814 372.063909l446.024121 0c6.542519 0 11.850627-5.838776 11.850627-13.034974l0-9.78374c0-7.20192-5.308108-13.040696-11.850627-13.040696L253.127814 336.204498c-6.54824 0-11.850627 5.838776-11.850627 13.040696l0 9.78374C241.277188 366.225133 246.579574 372.063909 253.127814 372.063909zM887.938069 607.801983l0-564.331567c0-24.003062-17.656504-43.470416-39.435339-43.470416l-138.880477 0c-12.292612 1.374587-17.477708 16.846914-17.477708 16.846914l-43.933856 79.368446c0 0-3.241222 4.927629-4.866123 5.93318-1.397473 0.866805-5.425399 1.084221-5.425399 1.084221l-325.107677 0c0 0-3.060995-0.38477-4.189558-1.084221-0.828185-0.513503-2.968021-2.485985-2.968021-2.485985l-45.839111-82.815641c0 0-5.179375-15.472327-17.470556-16.846914l-138.489986 0c-21.778834 0-39.435339 19.461633-39.435339 43.470416l0 863.294916c0 24.003062 17.656504 43.464695 39.435339 43.464695L541.297581 950.230027c44.268563 45.495822 106.140707 73.769973 174.63404 73.769973 134.560756 0 243.649458-109.088703 243.649458-243.649458C959.57965 712.934278 932.190899 651.914636 887.938069 607.801983zM96.954147 906.765332l0-863.294916c0-4.19671 3.095324-7.609576 6.900111-7.609576l128.37583 0 45.654593 82.475213 2.77206 5.012021 4.077989 3.77618c4.475632 4.140925 6.922997 5.654258 7.957156 6.292204 1.692129 1.049893 6.838605 4.229608 16.399208 5.441133l1.855192 0.234581 1.865204 0 325.107677 0 0.815312 0 0.80959-0.044342c11.666109-0.642237 17.733744-4.402683 19.711948-5.625651 3.654599-2.258556 8.693797-6.136293 15.287809-16.143171l0.759527-1.161462 0.682287-1.228689 43.743617-79.028018 128.772043 0c3.799066 0 6.900111 3.412866 6.900111 7.609576L855.401412 580.569143C815.888833 552.927216 767.804039 536.702513 715.930191 536.702513c-1.647788 0-3.291285 0.028607-4.933351 0.061506l0-8.218914c0-7.20192-5.302387-13.040696-11.844905-13.040696L253.127814 515.50441c-6.54824 0-11.850627 5.838776-11.850627 13.040696l0 9.778019c0 7.207641 5.302387 13.040696 11.850627 13.040696l379.377397 0c1.586282-0.575009 3.179716-1.134284 4.783162-1.682117C568.305854 573.192717 513.253721 626.775859 487.741617 694.808612L253.127814 694.808612c-6.54824 0-11.850627 5.838776-11.850627 13.040696l0 9.778019c0 7.20192 5.302387 13.040696 11.850627 13.040696L477.359981 730.668023c0.324694-1.559105 0.659401-3.112488 1.016994-4.665871-3.983584 17.477708-6.094812 35.670601-6.094812 54.34839 0 49.516596 14.782888 95.570263 40.159106 134.024367L103.854259 914.374908l0-0.005721C100.049471 914.370617 96.954147 910.956321 96.954147 906.765332zM863.375732 927.797513c-39.385276 39.379554-91.751171 61.069705-147.445541 61.069705s-108.060266-21.690151-147.445541-61.069705c-39.385276-39.385276-61.075427-91.751171-61.075427-147.445541s21.690151-108.060266 61.075427-147.445541 91.751171-61.069705 147.445541-61.069705 108.060266 21.68443 147.445541 61.069705 61.069705 91.751171 61.069705 147.445541S902.762438 888.410807 863.375732 927.797513z" /></svg>